<svg width="210" height="35" viewBox="0 0 210 35" fill="none" xmlns="http://www.w3.org/2000/svg">
<path d="M75.6885 13.4997C76.6161 13.1318 77.2321 11.8544 78.1748 11.4402C80.461 10.4355 84.0432 10.6417 85.799 12.6213C86.6678 13.6015 86.3567 14.2705 86.4478 15.2349C86.451 15.291 86.9092 15.4058 86.9075 15.6486C86.8886 17.2546 86.0439 19.432 85.5048 20.9776C87.6525 21.5151 89.9088 20.9393 91.9431 21.0068C94.3684 21.0892 96.0745 21.5917 98.4097 21.2048C101.012 20.7735 101.499 21.0244 102.691 18.2211L103.506 18.4199C103.591 16.5729 101.408 16.861 102.611 14.6931C103.541 13.0129 109.918 12.8677 111.343 14.4976L111.783 13.8974C116.156 16.6183 116.674 20.6855 113.526 24.6984C110.378 28.7112 102.348 31.092 101.165 24.1493C100.08 24.4897 98.277 25.012 97.1907 25.0348C95.96 25.0632 93.9879 24.3996 93.0048 24.3971C90.8013 24.3859 84.0064 24.6276 82.2547 25.3287C80.7432 25.9334 79.3978 27.4859 77.5965 27.7701C76.0385 28.014 73.7382 27.7854 73.9426 25.68C74.1471 23.5745 78.5576 22.9339 80.0138 21.9541C81.4699 20.9743 84.5662 16.0914 82.9352 14.6849C81.5274 13.471 78.7731 15.2666 77.7332 16.3648C76.1563 18.0372 74.9254 22.1472 72.3939 19.7223C71.1649 21.9877 71.6446 25.1852 68.54 25.7761C66.3569 24.4531 67.6616 22.3252 67.712 20.4071C67.7306 19.6978 67.371 17.2506 67.2199 16.4387C67.1423 16.0257 67.5984 15.8649 66.6632 15.8169C65.9615 17.1621 64.6795 18.6089 64.176 20.0387C63.5968 21.686 63.6625 25.5685 61.3434 25.699C58.9497 25.8322 59.7503 21.6082 59.5423 20.127C59.3658 18.8661 58.9171 17.5 58.1187 16.503C56.4522 17.5053 56.3249 19.8696 55.6219 21.2662C55.4843 21.5381 55.1468 21.4358 54.9205 21.3598L55.4906 22.0053C54.8304 23.5477 53.5078 27.5992 51.1748 26.3097C48.5753 24.8777 49.7247 19.2618 49.0196 19.1405C45.5034 20.5005 45.5926 25.0842 42.2654 26.6966C34.1291 30.6437 29.3156 20.3785 35.6992 15.3999C37.2071 14.2254 41.0239 13.1302 42.8514 13.7993C44.2912 14.3275 45.0296 15.4818 46.0756 16.4573C48.7725 15.426 49.7434 10.5714 52.9796 13.4865L53.2995 16.5584C54.6872 14.8156 55.0762 13.1353 57.6077 12.7208C60.1393 12.3064 60.6605 14.104 62.011 15.9001C62.5813 16.0085 64.94 10.6486 68.1879 12.0509C69.1646 12.4736 69.3062 13.8223 70.4801 13.8298C70.9252 13.0289 71.2316 12.0049 71.7127 11.2516C71.8438 11.0496 72.2757 11.103 72.5529 10.6619C73.1364 9.73391 73.9588 2.90925 75.8355 5.25157C76.6654 6.29146 75.9246 11.9648 75.6931 13.5045L75.6885 13.4997ZM111.409 18.0113L108.25 16.9708C108.134 19.2374 106.622 20.9303 104.846 22.0138C104.837 23.2651 104.567 24.1406 105.274 25.2473C108.779 25.204 113.022 21.8691 111.409 18.0113ZM38.3183 17.8599C37.6841 18.2355 35.8544 19.4249 37.2002 20.1608C37.8019 20.4895 41.0242 19.6776 41.7274 19.3365C44.4648 18.0027 40.8744 16.3346 38.323 17.86L38.3183 17.8599ZM39.6767 23.7892L36.6138 23.6806C37.2095 24.7704 38.9535 24.7135 39.6767 23.7892Z" fill="#F2F2F2"/>
<path d="M138.534 10.8216C137.097 8.60294 134.64 7.44088 132.025 7.45622C130.688 8.52319 134.42 16.5183 134.315 18.3603C134.934 19.997 138.567 18.967 138.197 17.6357L143.656 17.6718C143.974 16.0643 144.591 12.7881 145.341 11.3882C145.556 10.9782 145.956 10.8486 146.384 11.028L145.723 17.7681C149.275 17.5019 153.932 15.3173 156.781 18.2316C158.369 16.1392 160.401 16.6596 161.855 18.5985C162.683 19.7084 162.163 21.4133 161.776 22.664C161.129 24.7579 158.922 27.8989 157.155 29.1834C155.388 30.4679 153.424 31.4203 151.632 29.4258C150.862 28.5696 151.235 25.0069 152.014 24.0933C152.274 23.7872 153.716 24.04 152.207 22.9776L153.278 20.3205C150.007 21.0377 145.62 20.2546 145.076 24.6348C144.875 26.264 146.412 30.8904 143.844 31.0938C140.805 31.3361 142.709 23.5965 139.754 22.7436C139.301 22.615 138.763 22.8623 138.341 22.7765C137.437 22.594 135.866 21.7728 134.921 22.8034C134.781 22.9585 134.479 25.7666 133.874 26.7968C132.991 28.31 130.679 28.7022 129.162 28.1206C128.378 27.8198 124.511 24.79 124.097 24.0366C122.821 21.7287 125.209 18.9802 127.467 19.9268L127.267 19.2024L130.831 18.6656C131.398 17.3122 130.346 16.925 130.158 16.2615C129.697 14.6569 128.76 10.8075 128.737 9.20042C128.73 8.55579 129.22 6.21964 129.595 5.79517C129.878 5.47105 130.367 5.83416 130.59 5.6859C130.884 5.48815 130.493 4.96415 131.321 4.81315C133.353 4.45092 139.688 7.87714 138.549 10.808L138.534 10.8216ZM147.359 18.1054L146.705 17.9714L146.641 18.2966L147.294 18.4306L147.359 18.1054ZM155.322 26.2351C156.228 24.9139 158.589 23.3462 157.471 21.5842L156.197 21.8216C156.335 23.3196 154.171 24.9953 155.322 26.2351ZM131.384 22.4582C131.094 22.1424 128.286 22.629 128.21 23.0099C129.103 24.3177 130.127 24.7228 131.664 24.5624L131.384 22.4582ZM132.383 26.0898L131.725 25.9557L131.596 26.6155L132.383 26.0898Z" fill="#F2F2F2"/>
<path d="M173.278 5.67799C175.697 8.48756 177.529 12.3231 176.507 16.2798C176.31 17.0499 175.639 17.7841 175.643 17.9757C175.654 18.429 176.79 19.9019 177.138 20.1352C180.655 22.4646 181.43 15.9983 184.028 16.9539C186.442 17.8392 185.038 21.6131 184.707 23.3977L185.319 23.6893C186.078 22.4857 187.354 20.8848 188.467 20.036C189.009 19.6206 189.995 18.6331 190.446 19.565C190.474 21.5085 189.587 22.9936 188.668 24.6273C188.453 25.0093 187.906 24.9108 187.886 24.9477C187.794 25.0853 188.058 25.6854 187.768 26.2522C187.115 27.5193 184.56 29.3341 183.033 29.1165C179.626 28.6253 181.499 24.0185 180.68 23.8009C177.931 25.2417 175.998 23.5984 173.83 22.0657C173.69 23.1408 172.338 23.1706 171.83 23.727C171.537 24.0462 171.693 24.6528 171.3 24.9133C171.134 25.0257 167.763 26.3567 167.552 26.3839C162.084 27.0434 161.526 21.3313 166.474 20.2425L165.156 23.4115C167.288 24.2054 171.158 21.2669 171.442 19.3316C171.465 19.1781 170.478 16.8172 170.301 16.4623C168.841 13.5004 166.144 10.6602 165.771 7.11518C165.23 1.98259 169.586 1.47131 172.637 4.54499C173.045 4.95735 173.074 5.44847 173.278 5.68265L173.278 5.67799ZM173.043 12.1398C172.434 10.1437 171.353 7.84098 169.527 6.7469C169.299 6.9137 170.239 9.62834 170.424 10.0115C170.689 10.5602 171.237 10.8314 171.495 11.3005C171.726 11.7176 172.551 14.5226 173.208 14.0215C173.882 12.839 173.159 12.5071 173.043 12.1398Z" fill="#F2F2F2"/>
<path d="M14.3751 13.1863C17.751 13.2657 19.7679 13.286 21.3606 16.6857C22.1148 18.3027 22.1683 19.2801 21.7172 21.0195C20.6955 24.9715 18.7109 28.151 15.7217 30.9072C13.8834 32.6008 11.1945 32.2639 11.5143 29.3162C11.5758 28.748 14.0819 24.8724 14.4935 24.4582C14.8331 24.1216 16.9968 23.1697 17.2353 22.7791C18.1997 21.1886 19.0771 16.7004 16.3136 16.7211C16.0992 16.7248 12.9906 17.6425 12.8571 17.7604C12.7807 17.8285 12.6108 19.155 12.2793 19.7113C11.7386 20.6078 10.539 21.3982 10.1011 22.4561C10.0482 22.6975 13.3067 24.0534 11.2719 25.952C9.54765 27.5599 6.70841 24.2583 4.97185 23.3206C3.23529 22.383 -0.0082622 22.0549 0.325202 20.0042L3.03221 20.1827C3.45055 19.157 2.4777 18.5897 2.32102 17.6376C2.16433 16.6854 2.33211 15.4429 2.36351 14.4257C2.38547 13.5903 1.94071 13.1397 2.26079 11.9525C2.45159 11.2524 3.42536 9.83493 3.91599 9.25006C8.14937 4.18226 16.0836 5.61905 14.3796 13.1911L14.3751 13.1863ZM10.8263 10.1135C9.1841 8.77677 6.47959 10.9847 5.849 12.64C4.9432 15.0165 5.4792 16.9594 6.88662 18.8971C7.56798 19.2092 9.85483 15.8742 10.1204 15.1666C10.7424 13.4831 10.7106 11.8571 10.8263 10.1135Z" fill="#F2F2F2"/>
<path d="M202.938 23.989C200.98 25.9923 198.119 27.4069 195.188 26.718C191.456 25.84 191.637 19.1293 195.813 19.2671C195.992 19.5286 193.249 23.5615 196.4 23.8545C198.789 24.0761 200.186 21.8198 201.773 20.2924C201.312 19.4023 200.158 19.867 199.062 19.5486C195.455 18.5058 194.995 14.7483 198.444 13.1111C201.336 11.7394 203.25 13.0132 205.392 15.0029C206.078 14.9929 207.461 11.6388 208.967 12.3229C210.811 13.2307 209.081 16.669 207.994 17.6072C207.45 18.0786 206.317 18.3009 206.067 18.5793C205.241 19.5056 204.925 21.9584 202.938 23.9843L202.938 23.989ZM201.223 16.2336L200.569 16.0997L200.505 16.4249L201.158 16.5588L201.223 16.2336Z" fill="#F2F2F2"/>
<path d="M26.5647 19.078L26.4996 24.5683L27.4775 24.7668C27.3501 23.2317 29.8617 22.3357 30.0286 23.7878C30.3391 26.5092 27.7984 30.8136 25.195 27.5835C23.3721 25.322 24.1881 21.2198 25.5911 18.8937L26.5693 19.0828L26.5647 19.078Z" fill="#F2F2F2"/>
<path d="M190.672 14.1069C190.043 13.7401 189.021 13.6432 188.345 13.8263C187.5 14.0516 187.218 15.2163 186.576 15.0127C183.988 14.1928 184.676 10.0078 188.062 11.283C188.888 11.5943 191.506 13.0174 190.672 14.1069ZM189.489 13.1839L188.836 13.0499L188.771 13.3751L189.425 13.5091L189.489 13.1839Z" fill="#F2F2F2"/>
<path d="M26.4787 10.548L26.4235 14.418L24.4658 14.4506C23.4872 12.8605 24.2779 9.1919 26.4833 10.5481L26.4787 10.548Z" fill="#F2F2F2"/>
</svg>
