<svg width="52" height="47" viewBox="0 0 52 47" fill="none" xmlns="http://www.w3.org/2000/svg">
<path d="M16.6259 1.54081C10.98 2.34993 6.96058 6.80448 4.36197 11.2242C1.39881 16.2704 -0.638943 22.1431 0.183638 27.9375C1.73532 38.9172 13.6347 45.0074 24.4591 46.1993C29.8713 46.791 35.5453 46.1384 40.4434 43.8416C45.3414 41.5447 48.9028 37.5861 50.6695 32.8183C52.4362 28.0506 52.324 22.7956 51.0341 17.9669C49.6693 12.886 46.837 7.5875 42.4437 4.19439C37.1904 0.131362 30.1424 -0.695165 23.5898 0.505474C16.4016 1.81922 10.0733 5.62124 4.00677 9.25796C2.11857 10.389 3.8759 13.2166 5.77345 12.0768C14.5414 6.81318 25.6743 0.279266 36.4333 4.525C41.2753 6.43906 44.5002 10.7544 46.3884 15.1741C48.1177 19.2111 48.9122 23.7091 48.2859 28.0419C47.6596 32.3746 45.5845 36.3071 41.9763 39.0651C38.3682 41.8231 33.5823 43.015 28.9833 43.1281C19.9069 43.3544 8.82073 39.6567 4.82 31.4785C2.27748 26.2757 3.67961 20.1333 6.15669 15.1567C8.4001 10.6413 11.8213 5.51684 17.5513 4.69031C18.4861 4.5598 19.0095 3.46357 18.7758 2.68054C18.4954 1.74961 17.5607 1.4016 16.6166 1.54081H16.6259Z" fill="#191919"/>
</svg>
